<?xml version="1.0"?>
<svg xmlns="http://www.w3.org/2000/svg" id="Layer_1" data-name="Layer 1" viewBox="0 0 512 512" width="512px" height="512px" class=""><g><title class="active-path" style="">Student</title><path d="M276.171,177.6A53.731,53.731,0,0,0,238.354,86h-.024a53.5,53.5,0,1,0,.022,107h.026l0-5.874.047,6.064A52.984,52.984,0,0,0,276.171,177.6Zm-37.8,3.4s-.016.126-.023.126a41.29,41.29,0,0,1-41.4-41.326A41.726,41.726,0,0,1,238.378,98h.018a41.5,41.5,0,1,1,.023,83Z" data-original="#000000" class="active-path" fill="#8E24AA"/><path d="M373.1,50a53.41,53.41,0,0,0,.02,106.819c.123,0,.246,0,.368,0s.256,0,.382,0A53.41,53.41,0,0,0,373.124,50Zm.067,12a41.376,41.376,0,0,1,41.4,41.534c.165,22.652-18.13,41.466-40.79,41.466h-.65a41.5,41.5,0,0,1,.024-83Z" data-original="#000000" class="active-path" fill="#8E24AA"/><path d="M103.577,157h.03C133,157,156,133.4,157,103.5v-.158A53.357,53.357,0,0,0,103.579,50h-.024a53.5,53.5,0,0,0,.022,107ZM74.293,74.125A41.118,41.118,0,0,1,103.6,62h.011a41.375,41.375,0,0,1,41.405,41.436C144.554,126.7,126.373,145,103.6,145h-.027A41.552,41.552,0,0,1,74.293,74.125Z" data-original="#000000" class="active-path" fill="#8E24AA"/><path d="M462,274.64V249.157C462,207.38,427.641,173,385.854,173H361.663c-31.312,0-59.523,19.593-71.106,48.439A75.346,75.346,0,0,0,250.583,210H226.277a75.262,75.262,0,0,0-39.9,11.372A76.559,76.559,0,0,0,115.588,173H91.507A75.774,75.774,0,0,0,16,248.917v75.8c0,3.313,2.431,6.287,5.744,6.287H151v30.648c0,3.314,2.2,6.352,5.514,6.352H280.385c6.788,53,52.41,94.2,107.5,94.2,59.756,0,108.619-48.591,108.619-108.209A109.069,109.069,0,0,0,462,274.64ZM361.663,185h24.181C421,185,450,213.977,450,249.147v15.868a109.9,109.9,0,0,0-61.867-19.231,108.334,108.334,0,0,0-64.222,21A75.974,75.974,0,0,0,300.635,229C309.608,203.009,334.194,185,361.663,185ZM28,319V248.927A63.777,63.777,0,0,1,91.517,185h24.059a64.9,64.9,0,0,1,61,43.934A75.546,75.546,0,0,0,151,285.854V319Zm135,37V285.863C163,250.738,191.165,222,226.288,222h24.285a63.784,63.784,0,0,1,62.8,53.366,108.223,108.223,0,0,0-33.861,78.664c0,.583.012.97.022,1.97Zm224.885,94.026c-53.14,0-96.371-43.12-96.371-96.121s43.231-96.121,96.371-96.121,96.371,43.12,96.371,96.121S441.024,450.026,387.885,450.026Z" data-original="#000000" class="active-path" fill="#8E24AA"/><path d="M434.654,289H348.71A17.409,17.409,0,0,0,331,306.5v95.7c0,.068-.1.134-.1.2,0,.1-.052.395-.052.491A18.063,18.063,0,0,0,348.711,421H428.3c3.313,0,5.7-3.091,5.7-6.4V397h.654A6.5,6.5,0,0,0,441,390.773V294.584C441,291.271,437.968,289,434.654,289ZM343,306.5a5.406,5.406,0,0,1,5.71-5.5H356v84h-7.289a17.091,17.091,0,0,0-5.711.776ZM422,409H348.711a6,6,0,0,1,0-12H422Zm7-24H368V301h61Z" data-original="#000000" class="active-path" fill="#8E24AA"/></g> </svg>
