<?xml version="1.0"?>
<svg xmlns="http://www.w3.org/2000/svg" xmlns:xlink="http://www.w3.org/1999/xlink" version="1.1" id="Capa_1" x="0px" y="0px" viewBox="0 0 512 512" style="enable-background:new 0 0 512 512;" xml:space="preserve" width="512px" height="512px" class=""><g><g>
	<g>
		<g>
			<path d="M301.333,131.251h13.108V92.473h-51.888v55.014c0,3.614-2.94,6.554-6.554,6.554s-6.554-2.94-6.554-6.554V92.473h-51.888     v38.778h13.108v16.236h0.002c0,24.997,20.336,45.333,45.333,45.333s45.333-20.336,45.333-45.333V131.251z M299.443,116.251     h-13.108v31.236c0,16.726-13.607,30.333-30.333,30.333s-30.333-13.607-30.333-30.333v-31.236h-13.108v-8.778h21.886v40.014     c0,11.885,9.669,21.554,21.554,21.554c11.885,0,21.554-9.669,21.554-21.554v-40.014h21.888V116.251z" data-original="#000000" class="active-path" data-old_color="#000000" fill="#DCDCDC"/>
			<rect x="63.5" y="267.22" width="15" height="15" data-original="#000000" class="active-path" data-old_color="#000000" fill="#DCDCDC"/>
			<rect x="63.5" y="317.22" width="15" height="71.33" data-original="#000000" class="active-path" data-old_color="#000000" fill="#DCDCDC"/>
			<rect x="63.5" y="292.22" width="15" height="15" data-original="#000000" class="active-path" data-old_color="#000000" fill="#DCDCDC"/>
			<rect x="186.17" y="267.22" width="15" height="15" data-original="#000000" class="active-path" data-old_color="#000000" fill="#DCDCDC"/>
			<rect x="186.17" y="292.22" width="15" height="15" data-original="#000000" class="active-path" data-old_color="#000000" fill="#DCDCDC"/>
			<rect x="186.17" y="317.22" width="15" height="71.33" data-original="#000000" class="active-path" data-old_color="#000000" fill="#DCDCDC"/>
			<rect x="313.83" y="317.22" width="15" height="71.33" data-original="#000000" class="active-path" data-old_color="#000000" fill="#DCDCDC"/>
			<rect x="313.83" y="292.22" width="15" height="15" data-original="#000000" class="active-path" data-old_color="#000000" fill="#DCDCDC"/>
			<rect x="313.83" y="267.22" width="15" height="15" data-original="#000000" class="active-path" data-old_color="#000000" fill="#DCDCDC"/>
			<rect x="437.5" y="267.22" width="15" height="15" data-original="#000000" class="active-path" data-old_color="#000000" fill="#DCDCDC"/>
			<rect x="437.5" y="292.22" width="15" height="15" data-original="#000000" class="active-path" data-old_color="#000000" fill="#DCDCDC"/>
			<rect x="437.5" y="317.22" width="15" height="71.33" data-original="#000000" class="active-path" data-old_color="#000000" fill="#DCDCDC"/>
			<path d="M502.5,462.972v-28.541h-9.443l-4.923-33.458h-12.478v-148h12.478l4.923-33.458h18.744L255.997,5.486L0.192,219.514     h18.751l4.923,33.458h12.478v148H23.866l-4.923,33.458H9.5v28.542H0v43.542h512v-43.542H502.5z M477.895,434.431h-70.133     l2.716-18.458h64.701L477.895,434.431z M159.488,237.973l-2.717-18.458h70.134l-2.716,18.458H159.488z M209.667,252.973v148h0     h-35.656v-148H209.667z M159.012,252.973v148h-12.478l-4.924,33.458H119.4l-4.922-33.458H102v-148h12.478l4.923-33.458h22.209     l4.924,33.458H159.012z M159.488,415.973h64.701l2.716,18.458h-70.134L159.488,415.973z M224.667,400.973v-148h12.478     l4.923-33.458h27.865l4.923,33.458h12.478v148h-12.478l-4.923,33.458h-27.865l-4.923-33.458H224.667z M287.811,237.973     l-2.716-18.458h70.134l-2.717,18.458H287.811z M337.989,252.973v148h-35.656v-148H337.989z M287.811,415.973h64.701l2.717,18.458     h-70.134L287.811,415.973z M352.989,400.973v-148h12.478l4.924-33.458H392.6l4.923,33.458H410v148h-12.478l-4.923,33.458H370.39     l-4.923-33.458H352.989z M425,400.973v-148h35.656v148H425z M475.179,237.973h-64.701l-2.716-18.458h70.133L475.179,237.973z      M255.997,25.043l214.501,179.471H41.495L255.997,25.043z M34.105,219.514h70.133l-2.716,18.458H36.821L34.105,219.514z      M87,252.973v148H51.344v-148H87z M36.821,415.973h64.701l2.716,18.458H34.105L36.821,415.973z M24.5,449.431h463v13.542h-463     V449.431z M497,491.514H15v-13.542h482V491.514z" data-original="#000000" class="active-path" data-old_color="#000000" fill="#DCDCDC"/>
			<polygon points="255.997,62.068 284.271,85.725 293.896,74.221 255.997,42.51 218.097,74.221 227.722,85.725    " data-original="#000000" class="active-path" data-old_color="#000000" fill="#DCDCDC"/>
			<polygon points="331.754,105.895 322.129,117.399 394.343,177.82 299.686,177.82 299.686,192.82 435.646,192.82    " data-original="#000000" class="active-path" data-old_color="#000000" fill="#DCDCDC"/>
			<polygon points="189.871,117.394 180.246,105.89 76.349,192.82 212.314,192.82 212.314,177.82 117.651,177.82    " data-original="#000000" class="active-path" data-old_color="#000000" fill="#DCDCDC"/>
		</g>
	</g>
</g></g> </svg>
