<?xml version="1.0"?>
<svg xmlns="http://www.w3.org/2000/svg" id="Layer_1" data-name="Layer 1" viewBox="0 0 512 512" width="512px" height="512px"><g><title class="active-path" style="">Laptop Book</title><path d="M492.312,390H477V140.3A46.5,46.5,0,0,0,430.307,94H372V43.911C372,40.6,368.94,38,365.627,38H173.062C155.038,38,140,52.575,140,70.6V94H81.693A46.5,46.5,0,0,0,35,140.3V390H19.688C16.375,390,14,393.011,14,396.324v31.2A46.281,46.281,0,0,0,60.259,474H451.741A46.281,46.281,0,0,0,498,427.52v-31.2C498,393.011,495.625,390,492.312,390ZM345,265v41.807l-172.131,0A20.906,20.906,0,0,1,173.063,265ZM197,253V50h36V193.7a5.975,5.975,0,0,0,9.6,4.773l36.106-27.512,36.108,27.512a5.611,5.611,0,0,0,6.073.6A5.8,5.8,0,0,0,324,193.7V50h36V253H197Zm85.54-94.355a6.279,6.279,0,0,0-3.735-1.228,5.863,5.863,0,0,0-3.59,1.228L262,168.75V50h34V168.75ZM308,50h4V181.585l-4-3.692Zm-58,0V177.893l-5,3.691V50ZM152,70.6c0-11.408,9.654-20.6,21.062-20.6H185V253H173.063C165.22,253,158,256.208,152,260.831Zm21.063,248.209,178.132,0a5.837,5.837,0,0,0,5.805-6V265h8.627c3.313,0,6.373-2.255,6.373-5.568V149h53V353H87V149h53V285.022c0,.117.19.233.2.349-.006.249.085.5.085.749A32.805,32.805,0,0,0,173.063,318.809ZM47,140.3A34.484,34.484,0,0,1,81.693,106H140v31H81.159C77.845,137,75,139.322,75,142.635V358.966A6.166,6.166,0,0,0,81.159,365H430.842A6.166,6.166,0,0,0,437,358.966V142.635c0-3.313-2.845-5.635-6.158-5.635H372V106h58.307A34.484,34.484,0,0,1,465,140.3V390H315.519a6.167,6.167,0,0,0-4.413,2.1l-8.234,8.848A34.579,34.579,0,0,1,277.452,412h-42.9a34.5,34.5,0,0,1-25.42-10.975l-8.234-9.012A6.077,6.077,0,0,0,196.482,390H47ZM486,427.52A34.267,34.267,0,0,1,451.741,462H60.259A34.268,34.268,0,0,1,26,427.52V402H193.853l6.451,7a46.694,46.694,0,0,0,34.244,15h42.9A46.7,46.7,0,0,0,311.7,409l6.452-7H486Z" data-original="#000000" class="active-path" fill="#DCDCDC"/></g> </svg>
